<svg xmlns="http://www.w3.org/2000/svg" width="173" height="35" fill="none"><path fill="#fff" fillRule="evenodd" d="M31.562 12.158c1-2.323.248-4.776-1.423-6.238a8.21 8.21 0 0 1-7.406 4.666 8.21 8.21 0 0 1-7.429-4.717L4.798 7.092c-4.144.483-6.211 5.275-3.719 8.622l12.735 17.102c2.493 3.347 7.676 2.74 9.325-1.094l8.423-19.565" clip-rule="evenodd"></path><path fill="#fff" d="M22.725 7.355a3.678 3.678 0 1 0 0-7.355 3.678 3.678 0 0 0 0 7.355M60.686 23.886c0-9.464-14.196-8.04-14.196-12.436 0-1.424.964-2.136 2.178-2.094 1.507 0 2.638.837 2.721 2.68h8.92c-.294-5.862-4.732-9.17-11.516-9.17-6.24 0-11.055 3.098-11.055 8.877-.126 10.259 14.196 8.04 14.238 12.772 0 1.381-1.13 2.136-2.597 2.136-1.507 0-2.806-.754-2.973-2.974h-8.752c.336 6.324 5.444 9.464 12.018 9.464 6.994 0 11.014-4.062 11.014-9.254M87.777 21.08c0-7.453-5.318-12.017-12.311-12.017S63.154 13.627 63.154 21.08c0 7.496 5.277 12.06 12.27 12.06s12.353-4.564 12.353-12.06m-16.248 0c0-3.35 1.843-4.899 3.937-4.899s3.978 1.55 3.978 4.9c0 3.392-1.927 4.94-4.02 4.94-2.136 0-3.895-1.549-3.895-4.94M115.165 9.355h-8.25V21.96c0 2.721-1.507 4.313-3.894 4.313-2.345 0-3.895-1.591-3.895-4.313V9.355h-8.165v13.652c0 6.197 3.392 10.05 8.835 10.05 3.308 0 5.779-1.55 7.12-3.56v3.35h8.249zM121.154 23.929c0 6.742 3.811 8.92 9.003 8.92h3.559v-6.993h-2.387c-1.381 0-1.926-.544-1.926-1.8v-7.873h4.271V9.357h-4.271V3.662h-8.25v5.695h-2.889v6.826h2.889v7.747zM137.486 32.847h8.208V1.86h-8.208zM160.937 15.554c1.885 0 3.517 1.13 3.517 3.224h-7.244c.377-2.136 1.758-3.224 3.727-3.224m11.39 9.17h-8.752c-.46.963-1.34 1.843-2.931 1.843-1.843 0-3.308-1.088-3.475-3.81h15.536a15 15 0 0 0 .125-1.927c0-7.286-4.899-11.767-11.851-11.767-7.034 0-11.934 4.565-11.934 12.019 0 7.496 4.983 12.06 11.934 12.06 5.863 0 10.26-3.601 11.349-8.417z"></path></svg>
