<svg xmlns="http://www.w3.org/2000/svg" width="109" height="22" fill="none" class="d-inline-block align-text-top"><path fill="#2272FF" fill-rule="evenodd" d="M19.839 7.642c.629-1.46.156-3.001-.895-3.92a5.158 5.158 0 0 1-9.324-.033l-6.604.77C.411 4.761-.888 7.773.678 9.877l8.005 10.75c1.567 2.104 4.825 1.722 5.862-.688z" clip-rule="evenodd"></path><path fill="#2272FF" d="M14.284 4.623a2.312 2.312 0 1 0 0-4.623 2.312 2.312 0 0 0 0 4.623M38.145 15.014c0-5.949-8.923-5.054-8.923-7.817 0-.895.606-1.343 1.369-1.316.947 0 1.658.526 1.71 1.684h5.607c-.184-3.685-2.974-5.764-7.239-5.764-3.921 0-6.948 1.948-6.948 5.58-.08 6.449 8.923 5.054 8.95 8.028 0 .868-.712 1.343-1.633 1.343-.948 0-1.764-.474-1.869-1.87h-5.501c.21 3.976 3.422 5.95 7.554 5.95 4.396 0 6.923-2.554 6.923-5.818M55.175 13.25c0-4.685-3.343-7.554-7.74-7.554-4.395 0-7.738 2.87-7.738 7.555 0 4.712 3.317 7.58 7.712 7.58 4.396 0 7.766-2.868 7.766-7.58m-10.213 0c0-2.105 1.158-3.079 2.474-3.079s2.5.974 2.5 3.08c0 2.132-1.21 3.106-2.527 3.106-1.342 0-2.447-.974-2.447-3.106M72.39 5.88h-5.186v7.924c0 1.71-.947 2.71-2.448 2.71-1.474 0-2.448-1-2.448-2.71V5.88h-5.132v8.58c0 3.896 2.132 6.318 5.554 6.318 2.079 0 3.632-.974 4.474-2.238v2.106h5.186zM76.155 15.04c0 4.239 2.395 5.608 5.659 5.608h2.237v-4.396h-1.5c-.869 0-1.211-.342-1.211-1.132v-4.948h2.685v-4.29H81.34v-3.58h-5.186v3.58h-1.816v4.29h1.816v4.87zM86.42 20.647h5.159V1.169h-5.16zM101.16 9.776c1.185 0 2.211.711 2.211 2.027h-4.553c.237-1.343 1.105-2.027 2.342-2.027m7.16 5.765h-5.501c-.29.605-.842 1.158-1.842 1.158-1.159 0-2.08-.684-2.185-2.395h9.765c.053-.395.079-.816.079-1.21 0-4.58-3.079-7.397-7.449-7.397-4.422 0-7.501 2.869-7.501 7.554 0 4.712 3.132 7.581 7.501 7.581 3.686 0 6.449-2.264 7.134-5.29z"></path></svg>
