<svg xmlns="http://www.w3.org/2000/svg" width="644" height="723" fill="none" class="style_boxframe__rK9JD"><path stroke="#D9D9D9" stroke-width="0.746" d="M6.34 5.594h79.066V84.66H6.34z"></path><path fill="#D9D9D9" d="M79.813 0h11.188v11.188H79.813zM0 79.811h11.188v11.188H0zM0 0h11.188v11.188H0zM79.813 79.811h11.188v11.188H79.813z"></path><path stroke="#D9D9D9" stroke-width="0.746" d="M85.34 5.594h79.066V84.66H85.34z"></path><path fill="#D9D9D9" d="M158.812 0H170v11.188h-11.188zM158.812 79.811H170v11.188h-11.188z"></path><path stroke="#D9D9D9" stroke-width="0.746" d="M164.34 5.594h79.066V84.66H164.34z"></path><path fill="#D9D9D9" d="M237.812 0H249v11.188h-11.188zM237.812 79.811H249v11.188h-11.188z"></path><path stroke="#D9D9D9" stroke-width="0.746" d="M243.34 5.594h79.066V84.66H243.34z"></path><path fill="#D9D9D9" d="M316.812 0H328v11.188h-11.188zM316.812 79.811H328v11.188h-11.188z"></path><path stroke="#D9D9D9" stroke-width="0.746" d="M322.34 5.594h79.066V84.66H322.34z"></path><path fill="#D9D9D9" d="M395.812 0H407v11.188h-11.188zM395.812 79.811H407v11.188h-11.188z"></path><path stroke="#D9D9D9" stroke-width="0.746" d="M401.34 5.594h79.066V84.66H401.34z"></path><path fill="#D9D9D9" d="M474.812 0H486v11.188h-11.188zM474.812 79.811H486v11.188h-11.188z"></path><path stroke="#D9D9D9" stroke-width="0.746" d="M480.34 5.594h79.066V84.66H480.34z"></path><path fill="#D9D9D9" d="M553.812 0H565v11.188h-11.188zM553.812 79.811H565v11.188h-11.188z"></path><path stroke="#D9D9D9" stroke-width="0.746" d="M559.34 5.594h79.066V84.66H559.34z"></path><path fill="#D9D9D9" d="M632.812 0H644v11.188h-11.188zM632.812 79.811H644v11.188h-11.188z"></path><path stroke="#D9D9D9" stroke-width="0.746" d="M6.34 84.594h79.066v79.066H6.34z"></path><path fill="#D9D9D9" d="M79.813 79h11.188v11.188H79.813zM0 158.812h11.188V170H0zM0 79h11.188v11.188H0zM79.813 158.812h11.188V170H79.813z"></path><path stroke="#D9D9D9" stroke-width="0.746" d="M85.34 84.594h79.066v79.066H85.34z"></path><path fill="#D9D9D9" d="M158.812 79H170v11.188h-11.188zM158.812 158.812H170V170h-11.188z"></path><path stroke="#D9D9D9" stroke-width="0.746" d="M164.34 84.594h79.066v79.066H164.34z"></path><path fill="#D9D9D9" d="M237.812 79H249v11.188h-11.188zM237.812 158.812H249V170h-11.188z"></path><path stroke="#D9D9D9" stroke-width="0.746" d="M243.34 84.594h79.066v79.066H243.34z"></path><path fill="#D9D9D9" d="M316.812 79H328v11.188h-11.188zM316.812 158.812H328V170h-11.188z"></path><path stroke="#D9D9D9" stroke-width="0.746" d="M322.34 84.594h79.066v79.066H322.34z"></path><path fill="#D9D9D9" d="M395.812 79H407v11.188h-11.188zM395.812 158.812H407V170h-11.188z"></path><path stroke="#D9D9D9" stroke-width="0.746" d="M401.34 84.594h79.066v79.066H401.34z"></path><path fill="#D9D9D9" d="M474.812 79H486v11.188h-11.188zM474.812 158.812H486V170h-11.188z"></path><path stroke="#D9D9D9" stroke-width="0.746" d="M480.34 84.594h79.066v79.066H480.34z"></path><path fill="#D9D9D9" d="M553.812 79H565v11.188h-11.188zM553.812 158.812H565V170h-11.188z"></path><path stroke="#D9D9D9" stroke-width="0.746" d="M559.34 84.594h79.066v79.066H559.34z"></path><path fill="#D9D9D9" d="M632.812 79H644v11.188h-11.188zM632.812 158.812H644V170h-11.188z"></path><path stroke="#D9D9D9" stroke-width="0.746" d="M6.34 163.594h79.066v79.066H6.34z"></path><path fill="#D9D9D9" d="M79.813 158h11.188v11.188H79.813zM0 237.812h11.188V249H0zM0 158h11.188v11.188H0zM79.813 237.812h11.188V249H79.813z"></path><path stroke="#D9D9D9" stroke-width="0.746" d="M85.34 163.594h79.066v79.066H85.34z"></path><path fill="#D9D9D9" d="M158.812 158H170v11.188h-11.188zM158.812 237.812H170V249h-11.188z"></path><path stroke="#D9D9D9" stroke-width="0.746" d="M164.34 163.594h79.066v79.066H164.34z"></path><path fill="#D9D9D9" d="M237.812 158H249v11.188h-11.188zM237.812 237.812H249V249h-11.188z"></path><path stroke="#D9D9D9" stroke-width="0.746" d="M243.34 163.594h79.066v79.066H243.34z"></path><path fill="#D9D9D9" d="M316.812 158H328v11.188h-11.188zM316.812 237.812H328V249h-11.188z"></path><path stroke="#D9D9D9" stroke-width="0.746" d="M322.34 163.594h79.066v79.066H322.34z"></path><path fill="#D9D9D9" d="M395.812 158H407v11.188h-11.188zM395.812 237.812H407V249h-11.188z"></path><path stroke="#D9D9D9" stroke-width="0.746" d="M401.34 163.594h79.066v79.066H401.34z"></path><path fill="#D9D9D9" d="M474.812 158H486v11.188h-11.188zM474.812 237.812H486V249h-11.188z"></path><path stroke="#D9D9D9" stroke-width="0.746" d="M480.34 163.594h79.066v79.066H480.34z"></path><path fill="#D9D9D9" d="M553.812 158H565v11.188h-11.188zM553.812 237.812H565V249h-11.188z"></path><path stroke="#D9D9D9" stroke-width="0.746" d="M559.34 163.594h79.066v79.066H559.34z"></path><path fill="#D9D9D9" d="M632.812 158H644v11.188h-11.188zM632.812 237.812H644V249h-11.188z"></path><path stroke="#D9D9D9" stroke-width="0.746" d="M6.34 242.594h79.066v79.066H6.34z"></path><path fill="#D9D9D9" d="M79.813 237h11.188v11.188H79.813zM0 316.812h11.188V328H0zM0 237h11.188v11.188H0zM79.813 316.812h11.188V328H79.813z"></path><path stroke="#D9D9D9" stroke-width="0.746" d="M85.34 242.594h79.066v79.066H85.34z"></path><path fill="#D9D9D9" d="M158.812 237H170v11.188h-11.188zM158.812 316.812H170V328h-11.188z"></path><path stroke="#D9D9D9" stroke-width="0.746" d="M164.34 242.594h79.066v79.066H164.34z"></path><path fill="#D9D9D9" d="M237.812 237H249v11.188h-11.188zM237.812 316.812H249V328h-11.188z"></path><path stroke="#D9D9D9" stroke-width="0.746" d="M243.34 242.594h79.066v79.066H243.34z"></path><path fill="#D9D9D9" d="M316.812 237H328v11.188h-11.188zM316.812 316.812H328V328h-11.188z"></path><path stroke="#D9D9D9" stroke-width="0.746" d="M322.34 242.594h79.066v79.066H322.34z"></path><path fill="#D9D9D9" d="M395.812 237H407v11.188h-11.188zM395.812 316.812H407V328h-11.188z"></path><path stroke="#D9D9D9" stroke-width="0.746" d="M401.34 242.594h79.066v79.066H401.34z"></path><path fill="#D9D9D9" d="M474.812 237H486v11.188h-11.188zM474.812 316.812H486V328h-11.188z"></path><path stroke="#D9D9D9" stroke-width="0.746" d="M480.34 242.594h79.066v79.066H480.34z"></path><path fill="#D9D9D9" d="M553.812 237H565v11.188h-11.188zM553.812 316.812H565V328h-11.188z"></path><path stroke="#D9D9D9" stroke-width="0.746" d="M559.34 242.594h79.066v79.066H559.34z"></path><path fill="#D9D9D9" d="M632.812 237H644v11.188h-11.188zM632.812 316.812H644V328h-11.188z"></path><path stroke="#D9D9D9" stroke-width="0.746" d="M6.34 321.594h79.066v79.066H6.34z"></path><path fill="#D9D9D9" d="M79.813 316h11.188v11.188H79.813zM0 395.812h11.188V407H0zM0 316h11.188v11.188H0zM79.813 395.812h11.188V407H79.813z"></path><path stroke="#D9D9D9" stroke-width="0.746" d="M85.34 321.594h79.066v79.066H85.34z"></path><path fill="#D9D9D9" d="M158.812 316H170v11.188h-11.188zM158.812 395.812H170V407h-11.188z"></path><path stroke="#D9D9D9" stroke-width="0.746" d="M164.34 321.594h79.066v79.066H164.34z"></path><path fill="#D9D9D9" d="M237.812 316H249v11.188h-11.188zM237.812 395.812H249V407h-11.188z"></path><path stroke="#D9D9D9" stroke-width="0.746" d="M243.34 321.594h79.066v79.066H243.34z"></path><path fill="#D9D9D9" d="M316.812 316H328v11.188h-11.188zM316.812 395.812H328V407h-11.188z"></path><path stroke="#D9D9D9" stroke-width="0.746" d="M322.34 321.594h79.066v79.066H322.34z"></path><path fill="#D9D9D9" d="M395.812 316H407v11.188h-11.188zM395.812 395.812H407V407h-11.188z"></path><path stroke="#D9D9D9" stroke-width="0.746" d="M401.34 321.594h79.066v79.066H401.34z"></path><path fill="#D9D9D9" d="M474.812 316H486v11.188h-11.188zM474.812 395.812H486V407h-11.188z"></path><path stroke="#D9D9D9" stroke-width="0.746" d="M480.34 321.594h79.066v79.066H480.34z"></path><path fill="#D9D9D9" d="M553.812 316H565v11.188h-11.188zM553.812 395.812H565V407h-11.188z"></path><path stroke="#D9D9D9" stroke-width="0.746" d="M559.34 321.594h79.066v79.066H559.34z"></path><path fill="#D9D9D9" d="M632.812 316H644v11.188h-11.188zM632.812 395.812H644V407h-11.188z"></path><path stroke="#D9D9D9" stroke-width="0.746" d="M6.34 400.594h79.066v79.066H6.34z"></path><path fill="#D9D9D9" d="M79.813 395h11.188v11.188H79.813zM0 474.812h11.188V486H0zM0 395h11.188v11.188H0zM79.813 474.812h11.188V486H79.813z"></path><path stroke="#D9D9D9" stroke-width="0.746" d="M85.34 400.594h79.066v79.066H85.34z"></path><path fill="#D9D9D9" d="M158.812 395H170v11.188h-11.188zM158.812 474.812H170V486h-11.188z"></path><path stroke="#D9D9D9" stroke-width="0.746" d="M164.34 400.594h79.066v79.066H164.34z"></path><path fill="#D9D9D9" d="M237.812 395H249v11.188h-11.188zM237.812 474.812H249V486h-11.188z"></path><path stroke="#D9D9D9" stroke-width="0.746" d="M243.34 400.594h79.066v79.066H243.34z"></path><path fill="#D9D9D9" d="M316.812 395H328v11.188h-11.188zM316.812 474.812H328V486h-11.188z"></path><path stroke="#D9D9D9" stroke-width="0.746" d="M322.34 400.594h79.066v79.066H322.34z"></path><path fill="#D9D9D9" d="M395.812 395H407v11.188h-11.188zM395.812 474.812H407V486h-11.188z"></path><path stroke="#D9D9D9" stroke-width="0.746" d="M401.34 400.594h79.066v79.066H401.34z"></path><path fill="#D9D9D9" d="M474.812 395H486v11.188h-11.188zM474.812 474.812H486V486h-11.188z"></path><path stroke="#D9D9D9" stroke-width="0.746" d="M480.34 400.594h79.066v79.066H480.34z"></path><path fill="#D9D9D9" d="M553.812 395H565v11.188h-11.188zM553.812 474.812H565V486h-11.188z"></path><path stroke="#D9D9D9" stroke-width="0.746" d="M559.34 400.594h79.066v79.066H559.34z"></path><path fill="#D9D9D9" d="M632.812 395H644v11.188h-11.188zM632.812 474.812H644V486h-11.188z"></path><path stroke="#D9D9D9" stroke-opacity="0.5" stroke-width="0.746" d="M6.34 479.594h79.066v79.066H6.34z"></path><path fill="#D9D9D9" fill-opacity="0.5" d="M79.813 474h11.188v11.188H79.813zM0 553.812h11.188V565H0zM0 474h11.188v11.188H0zM79.813 553.812h11.188V565H79.813z"></path><path stroke="#D9D9D9" stroke-opacity="0.5" stroke-width="0.746" d="M85.34 479.594h79.066v79.066H85.34z"></path><path fill="#D9D9D9" fill-opacity="0.5" d="M158.812 474H170v11.188h-11.188zM158.812 553.812H170V565h-11.188z"></path><path stroke="#D9D9D9" stroke-opacity="0.5" stroke-width="0.746" d="M164.34 479.594h79.066v79.066H164.34z"></path><path fill="#D9D9D9" fill-opacity="0.5" d="M237.812 474H249v11.188h-11.188zM237.812 553.812H249V565h-11.188z"></path><path stroke="#D9D9D9" stroke-opacity="0.5" stroke-width="0.746" d="M243.34 479.594h79.066v79.066H243.34z"></path><path fill="#D9D9D9" fill-opacity="0.5" d="M316.812 474H328v11.188h-11.188zM316.812 553.812H328V565h-11.188z"></path><path stroke="#D9D9D9" stroke-opacity="0.5" stroke-width="0.746" d="M322.34 479.594h79.066v79.066H322.34z"></path><path fill="#D9D9D9" fill-opacity="0.5" d="M395.812 474H407v11.188h-11.188zM395.812 553.812H407V565h-11.188z"></path><path stroke="#D9D9D9" stroke-opacity="0.5" stroke-width="0.746" d="M401.34 479.594h79.066v79.066H401.34z"></path><path fill="#D9D9D9" fill-opacity="0.5" d="M474.812 474H486v11.188h-11.188zM474.812 553.812H486V565h-11.188z"></path><path stroke="#D9D9D9" stroke-opacity="0.5" stroke-width="0.746" d="M480.34 479.594h79.066v79.066H480.34z"></path><path fill="#D9D9D9" fill-opacity="0.5" d="M553.812 474H565v11.188h-11.188zM553.812 553.812H565V565h-11.188z"></path><path stroke="#D9D9D9" stroke-opacity="0.5" stroke-width="0.746" d="M559.34 479.594h79.066v79.066H559.34z"></path><path fill="#D9D9D9" fill-opacity="0.5" d="M632.812 474H644v11.188h-11.188zM632.812 553.812H644V565h-11.188z"></path><path stroke="#D9D9D9" stroke-opacity="0.4" stroke-width="0.746" d="M6.34 558.594h79.066v79.066H6.34z"></path><path fill="#D9D9D9" fill-opacity="0.4" d="M79.813 553h11.188v11.188H79.813zM0 632.812h11.188V644H0zM0 553h11.188v11.188H0zM79.813 632.812h11.188V644H79.813z"></path><path stroke="#D9D9D9" stroke-opacity="0.4" stroke-width="0.746" d="M85.34 558.594h79.066v79.066H85.34z"></path><path fill="#D9D9D9" fill-opacity="0.4" d="M158.812 553H170v11.188h-11.188zM158.812 632.812H170V644h-11.188z"></path><path stroke="#D9D9D9" stroke-opacity="0.4" stroke-width="0.746" d="M164.34 558.594h79.066v79.066H164.34z"></path><path fill="#D9D9D9" fill-opacity="0.4" d="M237.812 553H249v11.188h-11.188zM237.812 632.812H249V644h-11.188z"></path><path stroke="#D9D9D9" stroke-opacity="0.4" stroke-width="0.746" d="M243.34 558.594h79.066v79.066H243.34z"></path><path fill="#D9D9D9" fill-opacity="0.4" d="M316.812 553H328v11.188h-11.188zM316.812 632.812H328V644h-11.188z"></path><path stroke="#D9D9D9" stroke-opacity="0.4" stroke-width="0.746" d="M322.34 558.594h79.066v79.066H322.34z"></path><path fill="#D9D9D9" fill-opacity="0.4" d="M395.812 553H407v11.188h-11.188zM395.812 632.812H407V644h-11.188z"></path><path stroke="#D9D9D9" stroke-opacity="0.4" stroke-width="0.746" d="M401.34 558.594h79.066v79.066H401.34z"></path><path fill="#D9D9D9" fill-opacity="0.4" d="M474.812 553H486v11.188h-11.188zM474.812 632.812H486V644h-11.188z"></path><path stroke="#D9D9D9" stroke-opacity="0.4" stroke-width="0.746" d="M480.34 558.594h79.066v79.066H480.34z"></path><path fill="#D9D9D9" fill-opacity="0.4" d="M553.812 553H565v11.188h-11.188zM553.812 632.812H565V644h-11.188z"></path><path stroke="#D9D9D9" stroke-opacity="0.4" stroke-width="0.746" d="M559.34 558.594h79.066v79.066H559.34z"></path><path fill="#D9D9D9" fill-opacity="0.4" d="M632.812 553H644v11.188h-11.188zM632.812 632.812H644V644h-11.188z"></path><path stroke="#D9D9D9" stroke-opacity="0.3" stroke-width="0.746" d="M6.34 637.594h79.066v79.066H6.34z"></path><path fill="#D9D9D9" fill-opacity="0.3" d="M79.813 632h11.188v11.188H79.813zM0 711.812h11.188V723H0zM0 632h11.188v11.188H0zM79.813 711.812h11.188V723H79.813z"></path><path stroke="#D9D9D9" stroke-opacity="0.3" stroke-width="0.746" d="M85.34 637.594h79.066v79.066H85.34z"></path><path fill="#D9D9D9" fill-opacity="0.3" d="M158.812 632H170v11.188h-11.188zM158.812 711.812H170V723h-11.188z"></path><path stroke="#D9D9D9" stroke-opacity="0.3" stroke-width="0.746" d="M164.34 637.594h79.066v79.066H164.34z"></path><path fill="#D9D9D9" fill-opacity="0.3" d="M237.812 632H249v11.188h-11.188zM237.812 711.812H249V723h-11.188z"></path><path stroke="#D9D9D9" stroke-opacity="0.3" stroke-width="0.746" d="M243.34 637.594h79.066v79.066H243.34z"></path><path fill="#D9D9D9" fill-opacity="0.3" d="M316.812 632H328v11.188h-11.188zM316.812 711.812H328V723h-11.188z"></path><path stroke="#D9D9D9" stroke-opacity="0.3" stroke-width="0.746" d="M322.34 637.594h79.066v79.066H322.34z"></path><path fill="#D9D9D9" fill-opacity="0.3" d="M395.812 632H407v11.188h-11.188zM395.812 711.812H407V723h-11.188z"></path><path stroke="#D9D9D9" stroke-opacity="0.3" stroke-width="0.746" d="M401.34 637.594h79.066v79.066H401.34z"></path><path fill="#D9D9D9" fill-opacity="0.3" d="M474.812 632H486v11.188h-11.188zM474.812 711.812H486V723h-11.188z"></path><path stroke="#D9D9D9" stroke-opacity="0.3" stroke-width="0.746" d="M480.34 637.594h79.066v79.066H480.34z"></path><path fill="#D9D9D9" fill-opacity="0.3" d="M553.812 632H565v11.188h-11.188zM553.812 711.812H565V723h-11.188z"></path><path stroke="#D9D9D9" stroke-opacity="0.3" stroke-width="0.746" d="M559.34 637.594h79.066v79.066H559.34z"></path><path fill="#D9D9D9" fill-opacity="0.3" d="M632.812 632H644v11.188h-11.188zM632.812 711.812H644V723h-11.188z"></path></svg>
